
        <svg xmlns="http://www.w3.org/2000/svg" xmlns:xlink="http://www.w3.org/1999/xlink" version="1.1" width="3162.3083859332733" 
        height="909.7290767436323" viewBox="0 0 3162.3083859332733 909.7290767436323">
			<rect fill="#000000" width="3162.3083859332733" height="909.7290767436323"/>
			<g transform="scale(8.11541929666366) translate(10, 10)">
				<defs id="SvgjsDefs13148"></defs><g id="SvgjsG13149" featureKey="symbolFeature-0" transform="matrix(0.5756177403532559,0,0,0.5756177403532559,-7.260843459167503,-2.8780887017662793)" fill="#ffd700"><path xmlns="http://www.w3.org/2000/svg" d="M125.658,74.049c3.373,3.105,7.843,5.017,12.758,5.017c10.46,0,18.97-8.588,18.97-19.145s-8.51-19.145-18.97-19.145  c-10.461,0-18.971,8.588-18.971,19.145c0,1.879,0.281,3.691,0.783,5.408l-3.689,3.705l-3.841-31.817  c5.472-2.213,9.352-7.606,9.352-13.905c0-8.262-6.667-14.984-14.861-14.984S92.327,15.05,92.327,23.312  c0,6.674,4.352,12.338,10.343,14.271l4.886,40.472L92.073,93.605V43.458L81.4,27.107c1.778-2.321,2.847-5.219,2.847-8.371  C84.247,11.162,78.134,5,70.619,5S56.99,11.162,56.99,18.736s6.114,13.736,13.629,13.736c0.755,0,1.491-0.078,2.213-0.198  l9.241,14.157v6.492L48.033,39.26c-0.568-7.974-7.166-14.291-15.216-14.291c-8.421,0-15.272,6.908-15.272,15.4  s6.852,15.4,15.272,15.4c5.251,0,9.89-2.687,12.639-6.768l36.616,14.698v43.358H67.589l-1.186-20.703  c5.154-2.097,8.804-7.184,8.804-13.121c0-7.804-6.298-14.152-14.04-14.152c-7.741,0-14.039,6.349-14.039,14.152  c0,6.113,3.872,11.317,9.268,13.292l1.176,20.531H45.948c-1.803-7.466-8.47-13.031-16.418-13.031  c-9.327,0-16.916,7.655-16.916,17.064s7.589,17.064,16.916,17.064c7.244,0,13.421-4.627,15.827-11.098h36.716V165h10v-57.223  l9.649-9.69l8.873,9.857c-1.168,2.176-1.833,4.664-1.833,7.307c0,8.492,6.851,15.4,15.271,15.4s15.272-6.909,15.272-15.4  s-6.852-15.4-15.272-15.4c-2.171,0-4.234,0.466-6.105,1.293l-9.14-10.154L125.658,74.049z M107.188,18.328  c2.681,0,4.861,2.236,4.861,4.984s-2.181,4.984-4.861,4.984s-4.861-2.236-4.861-4.984S104.508,18.328,107.188,18.328z M66.99,18.736  c0-2.06,1.628-3.736,3.629-3.736c2,0,3.628,1.676,3.628,3.736s-1.628,3.736-3.628,3.736C68.618,22.473,66.99,20.796,66.99,18.736z   M32.817,45.769c-2.907,0-5.272-2.423-5.272-5.4s2.365-5.4,5.272-5.4c2.906,0,5.271,2.422,5.271,5.4S35.724,45.769,32.817,45.769z   M61.168,69.082c2.228,0,4.04,1.863,4.04,4.152s-1.812,4.152-4.04,4.152s-4.039-1.862-4.039-4.152S58.94,69.082,61.168,69.082z   M29.53,118.155c-3.813,0-6.916-3.169-6.916-7.064s3.103-7.064,6.916-7.064c3.812,0,6.915,3.169,6.915,7.064  S33.343,118.155,29.53,118.155z M129.307,115.251c0,2.978-2.365,5.4-5.272,5.4c-2.906,0-5.271-2.422-5.271-5.4s2.365-5.4,5.271-5.4  C126.941,109.851,129.307,112.273,129.307,115.251z M138.416,50.777c4.946,0,8.97,4.102,8.97,9.145s-4.023,9.145-8.97,9.145  s-8.971-4.102-8.971-9.145S133.47,50.777,138.416,50.777z"></path></g><g id="SvgjsG13150" featureKey="pulpyG-0" transform="matrix(3.2210442277065603,0,0,3.2210442277065603,99.80758769720939,2.67964052864302)" fill="#ffffff"><path d="M5.46 20 c-0.78 0 -1.58 -0.12 -2.36 -0.38 c-0.8 -0.26 -1.46 -0.6 -2.02 -1.02 c-0.08 -0.06 -0.12 -0.2 -0.06 -0.3 l0.96 -1.92 c0.04 -0.08 0.1 -0.12 0.18 -0.14 c0.06 -0.02 0.14 0.02 0.2 0.06 c0.42 0.38 0.9 0.66 1.4 0.86 c0.48 0.2 1 0.3 1.52 0.3 c0.62 0 1.12 -0.14 1.46 -0.38 c0.3 -0.26 0.46 -0.58 0.46 -1.02 s-0.14 -0.76 -0.46 -0.98 c-0.34 -0.24 -0.84 -0.36 -1.48 -0.36 l-0.96 0 c-0.14 0 -0.24 -0.1 -0.24 -0.24 l0.02 -1.9 c0 -0.12 0.1 -0.24 0.22 -0.24 l0.94 0 c0.64 0 1.12 -0.1 1.44 -0.34 c0.3 -0.22 0.44 -0.52 0.44 -0.94 s-0.14 -0.74 -0.44 -0.98 c-0.32 -0.24 -0.8 -0.38 -1.42 -0.38 c-0.5 0 -1 0.1 -1.46 0.3 c-0.5 0.18 -0.94 0.46 -1.36 0.82 c-0.06 0.06 -0.14 0.08 -0.2 0.06 c-0.08 -0.02 -0.14 -0.06 -0.18 -0.12 l-0.92 -1.86 c-0.06 -0.12 -0.02 -0.24 0.06 -0.3 c0.54 -0.42 1.18 -0.74 1.94 -0.98 c0.76 -0.26 1.54 -0.38 2.3 -0.38 c0.9 0 1.7 0.16 2.38 0.48 s1.22 0.78 1.58 1.36 c0.38 0.58 0.58 1.26 0.58 2 c0 0.9 -0.32 1.66 -0.92 2.24 c-0.04 0.04 -0.1 0.1 -0.16 0.14 l0.3 0.28 c0.62 0.58 0.94 1.36 0.94 2.3 c0 0.78 -0.2 1.46 -0.58 2.06 c-0.4 0.6 -0.94 1.08 -1.66 1.4 c-0.68 0.34 -1.52 0.5 -2.44 0.5 z M12.4 20 c-0.14 0 -0.26 -0.12 -0.26 -0.26 l0 -11.98 c0 -0.14 0.12 -0.26 0.26 -0.26 l2.88 0 c0.1 0 0.2 0.06 0.24 0.14 l3 7.4 l2.98 -7.4 c0.04 -0.08 0.14 -0.14 0.24 -0.14 l2.88 0 c0.14 0 0.26 0.12 0.26 0.26 l0 11.98 c0 0.14 -0.12 0.26 -0.26 0.26 l-2.34 0 c-0.14 0 -0.26 -0.12 -0.26 -0.26 l0 -6.44 l-2.44 6.2 c-0.04 0.08 -0.14 0.14 -0.22 0.14 l-1.68 0 c-0.1 0 -0.2 -0.06 -0.24 -0.14 l-2.46 -6.2 l0 6.44 c0 0.14 -0.12 0.26 -0.26 0.26 l-2.32 0 z M27.140000000000004 20 c-0.14 0 -0.26 -0.12 -0.26 -0.26 l0 -11.98 c0 -0.14 0.12 -0.26 0.26 -0.26 l2.6 0 c0.14 0 0.26 0.12 0.26 0.26 l0 11.98 c0 0.14 -0.12 0.26 -0.26 0.26 l-2.6 0 z M37.660000000000004 20 c-0.14 0 -0.26 -0.12 -0.26 -0.26 l0 -11.98 c0 -0.14 0.12 -0.26 0.26 -0.26 l2.6 0 c0.14 0 0.26 0.12 0.26 0.26 l0 9.36 l4.5 0 c0.14 0 0.26 0.12 0.26 0.26 l0 2.36 c0 0.14 -0.12 0.26 -0.26 0.26 l-7.36 0 z M47.540000000000006 20 c-0.08 0 -0.16 -0.04 -0.2 -0.12 c-0.06 -0.06 -0.06 -0.16 -0.04 -0.24 l4.66 -11.98 c0.04 -0.1 0.14 -0.16 0.24 -0.16 l2.68 0 c0.1 0 0.2 0.06 0.24 0.16 l4.58 11.98 c0.02 0.08 0.02 0.16 -0.04 0.24 c-0.04 0.08 -0.12 0.12 -0.2 0.12 l-2.78 0 c-0.1 0 -0.2 -0.06 -0.24 -0.16 l-0.74 -1.84 l-4.5 0.02 l-0.74 1.82 c-0.04 0.1 -0.14 0.16 -0.24 0.16 l-2.68 0 z M52.02000000000001 15.5 l2.88 0 l-1.44 -4.24 z M61.78000000000001 20 c-0.14 0 -0.26 -0.12 -0.26 -0.26 l0 -11.98 c0 -0.14 0.12 -0.26 0.26 -0.26 l4.78 0 c1.32 0 2.2 0.28 2.98 0.86 c1.08 0.78 1.52 2.26 1.02 3.52 c-0.26 0.64 -0.7 0.98 -1.3 1.3 c0.86 0.12 1.4 0.68 1.72 1.08 c0.46 0.6 0.7 1.32 0.7 2.16 c0 1.1 -0.44 2 -1.28 2.64 c-0.82 0.62 -1.94 0.94 -3.32 0.94 l-5.3 0 z M64.46000000000001 12.08 l1.96 0 c0.4 0 0.72 -0.08 0.94 -0.26 c0.2 -0.18 0.3 -0.42 0.3 -0.74 c0 -0.3 -0.1 -0.54 -0.3 -0.7 c-0.2 -0.18 -0.5 -0.26 -0.86 -0.26 l-2.04 0 l0 1.96 z M64.46000000000001 17.54 l2.34 0 c0.6 0 1.06 -0.12 1.4 -0.36 c0.3 -0.22 0.46 -0.52 0.46 -0.94 c0 -0.38 -0.16 -0.66 -0.46 -0.88 c-0.32 -0.22 -0.76 -0.34 -1.32 -0.34 l-2.42 0 l0 2.52 z M79.02000000000001 20.12 c-0.96 0 -1.92 -0.18 -2.84 -0.54 c-0.92 -0.34 -1.74 -0.84 -2.42 -1.44 c-0.08 -0.08 -0.1 -0.2 -0.06 -0.3 l0.7 -2.38 c0.04 -0.08 0.1 -0.14 0.18 -0.14 c0.08 -0.02 0.16 0 0.22 0.06 c1.06 1 2.26 1.9 3.76 1.98 c0.4 0.02 0.84 0.04 1.22 -0.08 c1.18 -0.38 0.68 -1.58 -0.2 -1.94 c-0.3 -0.12 -0.72 -0.26 -1.26 -0.42 c-0.8 -0.22 -1.46 -0.46 -1.96 -0.7 c-0.54 -0.24 -1 -0.62 -1.4 -1.12 c-0.38 -0.52 -0.58 -1.2 -0.58 -2.02 c0 -0.78 0.2 -1.46 0.6 -2.04 s0.96 -1.04 1.66 -1.34 s1.52 -0.46 2.44 -0.46 c0.82 0 1.62 0.12 2.42 0.38 c0.78 0.24 1.48 0.58 2.1 0.98 c0.1 0.08 0.14 0.2 0.08 0.32 l-0.66 2.24 c-0.02 0.08 -0.08 0.12 -0.16 0.14 c-0.06 0.02 -0.14 0.02 -0.2 -0.02 c-0.9 -0.56 -1.8 -1.24 -2.86 -1.38 c-0.7 -0.1 -1.76 -0.06 -2 0.78 c-0.3 1.08 1.28 1.36 2 1.58 c0.8 0.24 1.46 0.48 1.98 0.72 c0.54 0.26 1.02 0.66 1.4 1.16 c0.4 0.52 0.6 1.22 0.6 2.06 c0 0.82 -0.22 1.52 -0.64 2.12 c-0.4 0.6 -0.98 1.04 -1.7 1.36 c-0.72 0.28 -1.52 0.44 -2.42 0.44 z"></path></g>
			</g>
		</svg>
	