<?xml version="1.0" encoding="UTF-8"?>
<svg id="Layer_2" data-name="Layer 2" xmlns="http://www.w3.org/2000/svg" viewBox="0 0 1088 213.46">
  <defs>
    <style>
      .cls-1 {
        fill: #131313;
        stroke-width: 0px;
      }
    </style>
  </defs>
  <g id="Layer_2-2" data-name="Layer 2">
    <g>
      <path class="cls-1" d="m7.16,16.1L0,2.51h403.06l7.12,13.59h-183.49l9.21,17.48s10.18,21.74,35.36,39.23c25.18,17.49,52.73,19.41,61.14,19.41h70.63l7.15,13.64h-130.36s-114.02-5.06-177.94,107.6H0s25.03-54.85,83.01-88.25c27.11-15.62,63.56-33.9,126.2-32.9,0,0-27.41,1.17-56.73-18.49-12.53-8.4-20.74-17.4-26.66-25.74-7.92-11.17-9.13-18.52-18.93-25.61-7.82-5.66-15.96-6.32-19.39-6.32s-80.34-.05-80.34-.05Z"/>
      <g>
        <path class="cls-1" d="m467.72,2.52h76.61v13.89h-61.65v41.31h60.57v13.89h-60.57v55.57h-14.97V2.52Z"/>
        <path class="cls-1" d="m628.29,96.18h-53.42l-9.09,31.01h-16.01L587.51,2.52h28.12l37.79,124.67h-16.04l-9.09-31.01Zm-27.79-87.25l-21.54,73.36h45.24l-21.54-73.36h-2.15Z"/>
        <path class="cls-1" d="m673.46,113.29h10.67V16.41h-10.67V2.52h50.4c5.94,0,11.17.81,15.74,2.48,4.6,1.64,8.46,3.93,11.58,6.78,3.15,2.85,5.54,6.24,7.15,10.24,1.58,3.96,2.38,8.29,2.38,12.92v2.11c0,3.46-.54,6.61-1.58,9.46-1.07,2.85-2.58,5.4-4.46,7.65-1.91,2.25-4.13,4.19-6.68,5.77-2.55,1.61-5.34,2.82-8.29,3.66v2.15c5.94,1.64,10.94,4.83,14.97,9.53,4.03,4.7,6.04,10.4,6.04,17.18v2.15c0,4.63-.81,8.93-2.38,12.89-1.61,3.99-3.99,7.45-7.15,10.34-3.12,2.92-6.98,5.2-11.58,6.88-4.56,1.64-9.8,2.48-15.74,2.48h-50.4v-13.89Zm25.64-55.57h24.23c7.11,0,12.75-1.85,16.91-5.54,4.16-3.66,6.24-8.73,6.24-15.13v-1.07c0-6.04-2.21-10.81-6.61-14.33-4.4-3.49-10.07-5.24-17.08-5.24h-23.69v41.31Zm0,55.57h23.69c7.01,0,12.68-1.75,17.08-5.27,4.4-3.49,6.61-8.32,6.61-14.5v-1.07c0-6.41-2.08-11.48-6.24-15.24-4.16-3.72-9.8-5.6-16.91-5.6h-24.23v41.68Z"/>
        <path class="cls-1" d="m865.48,127.19h-14.97v-41.68c0-3.09-.74-5.47-2.15-7.11-1.41-1.68-3.93-2.52-7.48-2.52h-38.83v51.31h-14.97V2.52h44.53c6.41,0,11.98.91,16.75,2.75,4.73,1.85,8.69,4.3,11.85,7.38,3.15,3.09,5.54,6.68,7.11,10.77,1.61,4.09,2.42,8.42,2.42,12.92v5.34c0,4.63-1.28,9.26-3.83,13.89-2.55,4.63-6.51,8.19-11.85,10.71v2.11c3.56.6,6.34,2.05,8.36,4.3,2.01,2.25,3.05,5.47,3.05,9.6v44.9Zm-63.42-65.2h27.79c8.42,0,14.7-1.81,18.79-5.44,4.09-3.59,6.14-8.93,6.14-15.94v-3.19c0-6.31-2.05-11.38-6.14-15.24-4.09-3.86-10.37-5.77-18.79-5.77h-27.79v45.57Z"/>
        <path class="cls-1" d="m893.97,2.52h79.06v13.89h-32.05v96.88h32.05v13.89h-79.06v-13.89h32.05V16.41h-32.05V2.52Z"/>
        <path class="cls-1" d="m1043.69,115.78c5.1,0,9.5-.84,13.12-2.58,3.59-1.71,6.58-4.03,8.89-6.95,2.32-2.89,4.03-6.21,5.17-9.97,1.11-3.72,1.68-7.68,1.68-11.85v-2.15h14.97v2.15c0,6.31-.94,12.22-2.85,17.72-1.88,5.54-4.7,10.34-8.36,14.43-3.69,4.09-8.26,7.32-13.73,9.63-5.47,2.32-11.75,3.46-18.89,3.46-13.76,0-24.5-4.33-32.22-12.99-7.72-8.66-11.58-21.31-11.58-37.95v-27.79c0-16.14,3.86-28.66,11.58-37.59,7.72-8.89,18.46-13.36,32.22-13.36,7.15,0,13.42,1.17,18.89,3.49,5.47,2.32,10.03,5.5,13.73,9.6,3.66,4.09,6.48,8.93,8.36,14.43,1.91,5.54,2.85,11.44,2.85,17.72v2.15h-14.97v-2.15c-.1-4.03-.74-7.95-1.85-11.75-1.14-3.79-2.85-7.15-5.17-10.07-2.32-2.89-5.27-5.2-8.83-6.95-3.56-1.71-7.92-2.58-13.02-2.58-9.6,0-16.81,3.52-21.61,10.5-4.83,7.01-7.21,16.21-7.21,27.62v25.64c0,12.25,2.38,21.64,7.21,28.26,4.8,6.58,12.01,9.87,21.61,9.87Z"/>
      </g>
      <g>
        <path class="cls-1" d="m467.72,2.52h76.61v13.89h-61.65v41.31h60.57v13.89h-60.57v55.57h-14.97V2.52Z"/>
        <path class="cls-1" d="m628.29,96.18h-53.42l-9.09,31.01h-16.01L587.51,2.52h28.12l37.79,124.67h-16.04l-9.09-31.01Zm-27.79-87.25l-21.54,73.36h45.24l-21.54-73.36h-2.15Z"/>
        <path class="cls-1" d="m673.46,113.29h10.67V16.41h-10.67V2.52h50.4c5.94,0,11.17.81,15.74,2.48,4.6,1.64,8.46,3.93,11.58,6.78,3.15,2.85,5.54,6.24,7.15,10.24,1.58,3.96,2.38,8.29,2.38,12.92v2.11c0,3.46-.54,6.61-1.58,9.46-1.07,2.85-2.58,5.4-4.46,7.65-1.91,2.25-4.13,4.19-6.68,5.77-2.55,1.61-5.34,2.82-8.29,3.66v2.15c5.94,1.64,10.94,4.83,14.97,9.53,4.03,4.7,6.04,10.4,6.04,17.18v2.15c0,4.63-.81,8.93-2.38,12.89-1.61,3.99-3.99,7.45-7.15,10.34-3.12,2.92-6.98,5.2-11.58,6.88-4.56,1.64-9.8,2.48-15.74,2.48h-50.4v-13.89Zm25.64-55.57h24.23c7.11,0,12.75-1.85,16.91-5.54,4.16-3.66,6.24-8.73,6.24-15.13v-1.07c0-6.04-2.21-10.81-6.61-14.33-4.4-3.49-10.07-5.24-17.08-5.24h-23.69v41.31Zm0,55.57h23.69c7.01,0,12.68-1.75,17.08-5.27,4.4-3.49,6.61-8.32,6.61-14.5v-1.07c0-6.41-2.08-11.48-6.24-15.24-4.16-3.72-9.8-5.6-16.91-5.6h-24.23v41.68Z"/>
        <path class="cls-1" d="m865.48,127.19h-14.97v-41.68c0-3.09-.74-5.47-2.15-7.11-1.41-1.68-3.93-2.52-7.48-2.52h-38.83v51.31h-14.97V2.52h44.53c6.41,0,11.98.91,16.75,2.75,4.73,1.85,8.69,4.3,11.85,7.38,3.15,3.09,5.54,6.68,7.11,10.77,1.61,4.09,2.42,8.42,2.42,12.92v5.34c0,4.63-1.28,9.26-3.83,13.89-2.55,4.63-6.51,8.19-11.85,10.71v2.11c3.56.6,6.34,2.05,8.36,4.3,2.01,2.25,3.05,5.47,3.05,9.6v44.9Zm-63.42-65.2h27.79c8.42,0,14.7-1.81,18.79-5.44,4.09-3.59,6.14-8.93,6.14-15.94v-3.19c0-6.31-2.05-11.38-6.14-15.24-4.09-3.86-10.37-5.77-18.79-5.77h-27.79v45.57Z"/>
        <path class="cls-1" d="m893.97,2.52h79.06v13.89h-32.05v96.88h32.05v13.89h-79.06v-13.89h32.05V16.41h-32.05V2.52Z"/>
        <path class="cls-1" d="m1043.69,115.78c5.1,0,9.5-.84,13.12-2.58,3.59-1.71,6.58-4.03,8.89-6.95,2.32-2.89,4.03-6.21,5.17-9.97,1.11-3.72,1.68-7.68,1.68-11.85v-2.15h14.97v2.15c0,6.31-.94,12.22-2.85,17.72-1.88,5.54-4.7,10.34-8.36,14.43-3.69,4.09-8.26,7.32-13.73,9.63-5.47,2.32-11.75,3.46-18.89,3.46-13.76,0-24.5-4.33-32.22-12.99-7.72-8.66-11.58-21.31-11.58-37.95v-27.79c0-16.14,3.86-28.66,11.58-37.59,7.72-8.89,18.46-13.36,32.22-13.36,7.15,0,13.42,1.17,18.89,3.49,5.47,2.32,10.03,5.5,13.73,9.6,3.66,4.09,6.48,8.93,8.36,14.43,1.91,5.54,2.85,11.44,2.85,17.72v2.15h-14.97v-2.15c-.1-4.03-.74-7.95-1.85-11.75-1.14-3.79-2.85-7.15-5.17-10.07-2.32-2.89-5.27-5.2-8.83-6.95-3.56-1.71-7.92-2.58-13.02-2.58-9.6,0-16.81,3.52-21.61,10.5-4.83,7.01-7.21,16.21-7.21,27.62v25.64c0,12.25,2.38,21.64,7.21,28.26,4.8,6.58,12.01,9.87,21.61,9.87Z"/>
      </g>
      <g>
        <path class="cls-1" d="m488.72,206.75c2.45,0,4.55-.41,6.29-1.24,1.74-.83,3.16-1.94,4.28-3.34,1.11-1.4,1.94-2.99,2.48-4.79.54-1.8.81-3.69.81-5.69v-1.03h7.18v1.03c0,3.02-.46,5.86-1.37,8.51-.91,2.65-2.25,4.96-4.02,6.93-1.77,1.97-3.96,3.51-6.59,4.62-2.62,1.11-5.64,1.67-9.07,1.67-6.61,0-11.77-2.08-15.48-6.24-3.71-4.16-5.56-10.23-5.56-18.22v-13.34c0-7.75,1.85-13.77,5.56-18.05,3.71-4.28,8.87-6.41,15.48-6.41,3.42,0,6.44.56,9.07,1.67,2.62,1.11,4.82,2.65,6.59,4.62,1.77,1.97,3.11,4.28,4.02,6.93.91,2.65,1.37,5.49,1.37,8.51v1.03h-7.18v-1.03c-.06-1.94-.36-3.82-.9-5.64-.54-1.82-1.37-3.43-2.48-4.83-1.11-1.4-2.52-2.51-4.23-3.34-1.71-.83-3.79-1.24-6.24-1.24-4.62,0-8.08,1.68-10.39,5.05-2.31,3.36-3.46,7.78-3.46,13.26v12.32c0,5.87,1.15,10.39,3.46,13.56,2.31,3.16,5.77,4.75,10.39,4.75Z"/>
        <path class="cls-1" d="m559.45,212.22h-7.18v-20.01c0-1.48-.34-2.62-1.03-3.42-.68-.8-1.88-1.2-3.59-1.2h-18.64v24.63h-7.18v-59.87h21.38c3.08,0,5.76.44,8.04,1.33,2.28.88,4.18,2.07,5.69,3.55,1.51,1.48,2.65,3.21,3.42,5.17.77,1.97,1.15,4.03,1.15,6.2v2.57c0,2.22-.61,4.45-1.84,6.67-1.23,2.22-3.12,3.93-5.69,5.13v1.03c1.71.29,3.05.97,4.02,2.05.97,1.08,1.45,2.62,1.45,4.62v21.55Zm-30.45-31.3h13.34c4.05,0,7.06-.87,9.02-2.61,1.97-1.74,2.95-4.29,2.95-7.65v-1.54c0-3.02-.98-5.46-2.95-7.31-1.97-1.85-4.98-2.78-9.02-2.78h-13.34v21.89Z"/>
        <path class="cls-1" d="m589.47,191.18h-1.54l-18.73-38.83h8.04l15.31,32.67h1.03l15.31-32.67h8.04l-18.73,38.83h-1.54v21.04h-7.18v-21.04Z"/>
        <path class="cls-1" d="m633.69,187.59v24.63h-7.18v-59.87h21.38c3.08,0,5.76.44,8.04,1.33,2.28.88,4.18,2.07,5.69,3.55,1.51,1.48,2.65,3.21,3.42,5.17.77,1.97,1.15,4.03,1.15,6.2v2.57c0,2.17-.38,4.25-1.15,6.24-.77,2-1.92,3.75-3.46,5.26-1.54,1.51-3.45,2.71-5.73,3.59-2.28.88-4.93,1.33-7.95,1.33h-14.2Zm0-6.67h13.34c7.98,0,11.97-3.42,11.97-10.26v-1.54c0-3.02-.98-5.46-2.95-7.31-1.97-1.85-4.98-2.78-9.02-2.78h-13.34v21.89Z"/>
        <path class="cls-1" d="m676.71,152.36h42.08v6.67h-17.45v53.2h-7.18v-53.2h-17.45v-6.67Z"/>
        <path class="cls-1" d="m729.05,175.62c0-7.75,1.85-13.77,5.56-18.05,3.71-4.28,8.87-6.41,15.48-6.41s11.77,2.14,15.48,6.41c3.71,4.28,5.56,10.29,5.56,18.05v13.34c0,7.98-1.85,14.06-5.56,18.22-3.71,4.16-8.87,6.24-15.48,6.24s-11.77-2.08-15.48-6.24c-3.71-4.16-5.56-10.23-5.56-18.22v-13.34Zm21.04,31.13c4.62,0,8.08-1.58,10.39-4.75s3.46-7.68,3.46-13.56v-12.32c0-5.47-1.15-9.89-3.46-13.26-2.31-3.36-5.77-5.05-10.39-5.05s-8.08,1.68-10.39,5.05c-2.31,3.36-3.46,7.78-3.46,13.26v12.32c0,5.87,1.15,10.39,3.46,13.56,2.31,3.16,5.77,4.75,10.39,4.75Z"/>
        <path class="cls-1" d="m796.7,183.49h26.68v28.74h-6.67v-7.18h-1.03c-.97,2.51-2.68,4.53-5.13,6.07-2.45,1.54-5.3,2.31-8.55,2.31-6.44,0-11.5-2.08-15.18-6.24-3.68-4.16-5.52-10.23-5.52-18.22v-13.34c0-7.75,1.85-13.77,5.56-18.05,3.71-4.28,8.87-6.41,15.48-6.41,3.42,0,6.44.56,9.07,1.67,2.62,1.11,4.82,2.65,6.59,4.62,1.77,1.97,3.11,4.28,4.02,6.93.91,2.65,1.37,5.49,1.37,8.51v1.03h-7.18v-1.03c0-1.94-.27-3.82-.81-5.64-.54-1.82-1.37-3.43-2.48-4.83-1.11-1.4-2.54-2.51-4.28-3.34-1.74-.83-3.84-1.24-6.29-1.24-4.62,0-8.08,1.68-10.39,5.05-2.31,3.36-3.46,7.78-3.46,13.26v12.32c0,5.87,1.15,10.39,3.46,13.56,2.31,3.16,5.83,4.75,10.56,4.75,4.28,0,7.63-1.37,10.05-4.11,2.42-2.74,3.63-6.56,3.63-11.46v-1.03h-19.5v-6.67Z"/>
        <path class="cls-1" d="m873.5,212.22h-7.18v-20.01c0-1.48-.34-2.62-1.03-3.42-.68-.8-1.88-1.2-3.59-1.2h-18.64v24.63h-7.18v-59.87h21.38c3.08,0,5.76.44,8.04,1.33,2.28.88,4.18,2.07,5.69,3.55,1.51,1.48,2.65,3.21,3.42,5.17.77,1.97,1.15,4.03,1.15,6.2v2.57c0,2.22-.61,4.45-1.84,6.67-1.23,2.22-3.12,3.93-5.69,5.13v1.03c1.71.29,3.05.97,4.02,2.05.97,1.08,1.45,2.62,1.45,4.62v21.55Zm-30.45-31.3h13.34c4.05,0,7.06-.87,9.02-2.61,1.97-1.74,2.95-4.29,2.95-7.65v-1.54c0-3.02-.98-5.46-2.95-7.31-1.97-1.85-4.98-2.78-9.02-2.78h-13.34v21.89Z"/>
        <path class="cls-1" d="m919.94,197.34h-25.66l-4.36,14.88h-7.7l18.13-59.87h13.51l18.13,59.87h-7.7l-4.36-14.88Zm-13.34-41.91l-10.35,35.24h21.72l-10.35-35.24h-1.03Z"/>
        <path class="cls-1" d="m947.74,187.59v24.63h-7.18v-59.87h21.38c3.08,0,5.76.44,8.04,1.33,2.28.88,4.18,2.07,5.69,3.55,1.51,1.48,2.65,3.21,3.42,5.17.77,1.97,1.15,4.03,1.15,6.2v2.57c0,2.17-.38,4.25-1.15,6.24-.77,2-1.92,3.75-3.46,5.26-1.54,1.51-3.45,2.71-5.73,3.59-2.28.88-4.93,1.33-7.95,1.33h-14.2Zm0-6.67h13.34c7.98,0,11.97-3.42,11.97-10.26v-1.54c0-3.02-.98-5.46-2.95-7.31-1.97-1.85-4.98-2.78-9.02-2.78h-13.34v21.89Z"/>
        <path class="cls-1" d="m991.87,152.36h7.18v26.51h25.49v-26.51h7.18v59.87h-7.18v-26.68h-25.49v26.68h-7.18v-59.87Z"/>
        <path class="cls-1" d="m1060.55,191.18h-1.54l-18.73-38.83h8.04l15.31,32.67h1.03l15.31-32.67h8.04l-18.73,38.83h-1.54v21.04h-7.18v-21.04Z"/>
      </g>
    </g>
  </g>
</svg>